Coordinates
version=1
nRows=19
nColumns=24
inDegrees=yes

Units are S.I. units (second, meters, Newtons, ...)
Angles are in degrees.

endheader
time	pelvis_tilt	pelvis_list	pelvis_rotation	pelvis_tx	pelvis_ty	pelvis_tz	hip_flexion_r	hip_adduction_r	hip_rotation_r	knee_angle_r	ankle_angle_r	subtalar_angle_r	mtp_angle_r	hip_flexion_l	hip_adduction_l	hip_rotation_l	knee_angle_l	ankle_angle_l	subtalar_angle_l	mtp_angle_l	lumbar_extension	lumbar_bending	lumbar_rotation
      0.52500000	     -2.38136210	      0.18272385	      7.62887771	     -0.77118830	      1.02333318	      0.31100701	     20.17457588	      1.56095475	    -10.89944757	      6.57805187	      4.11622626	      1.26707387	      5.77079361	    -11.75413757	      4.37524025	      9.08682912	     -9.14396400	      9.84107176	     -3.23531273	     -1.68741619	     -3.67403928	     -3.04380133	     -6.71662859
      0.52916667	     -2.31298565	      0.13261694	      7.68404226	     -0.76517470	      1.02284978	      0.31107062	     20.05544889	      1.72693512	    -10.77707051	      6.36300812	      4.23603352	      1.03349233	      5.81375295	    -11.85022235	      4.27634198	      9.01197492	     -9.80026433	      9.95940135	     -2.99738509	     -1.65647706	     -3.68069316	     -2.99549182	     -6.73736048
      0.53333333	     -2.26276426	      0.07707280	      7.73740768	     -0.75913493	      1.02235697	      0.31110633	     19.96881331	      1.88760645	    -10.63502828	      6.06295916	      4.29887902	      0.71929935	      5.88288086	    -11.89893525	      4.17723661	      8.90048882	    -10.51151295	     10.06644811	     -2.72579773	     -1.59038394	     -3.64977363	     -2.92553924	     -6.75220556
      0.53750000	     -2.18617236	      0.01767818	      7.77984861	     -0.75307649	      1.02190908	      0.31114594	     19.86581351	      2.05426761	    -10.47657647	      5.69585274	      4.24529364	      0.29154109	      6.00669921	    -11.95272492	      4.06930504	      8.71318453	    -11.26489749	     10.15991428	     -2.37344656	     -1.45737008	     -3.65105750	     -2.84949270	     -6.76519657
      0.54166667	     -2.09560763	     -0.05240360	      7.83162252	     -0.74698133	      1.02151321	      0.31116113	     19.74313960	      2.22625599	    -10.29549001	      5.29349279	      4.15735898	     -0.17935032	      6.17506903	    -12.00600553	      3.94908750	      8.55658866	    -12.04532707	     10.21367300	     -2.07361304	     -1.26857898	     -3.66539815	     -2.75474795	     -6.78154662
      0.54583333	     -2.02559413	     -0.14363123	      7.88255926	     -0.74083141	      1.02108503	      0.31114341	     19.64441966	      2.41040753	    -10.08783657	      4.84960122	      4.04043808	     -0.69475927	      6.33974864	    -12.02000259	      3.81408220	      8.41363866	    -12.86113371	     10.23808200	     -1.80727861	     -1.07394621	     -3.63583559	     -2.61529442	     -6.79668788
      0.55000000	     -1.92514459	     -0.21927680	      7.92707830	     -0.73467782	      1.02072328	      0.31114878	     19.51410476	      2.58392538	     -9.85963983	      4.38411610	      3.77700672	     -1.31884447	      6.53995588	    -12.04022967	      3.68571293	      8.19427812	    -13.71914466	     10.20539456	     -1.48783029	     -0.82183472	     -3.64848493	     -2.50667274	     -6.81588221
      0.55416667	     -1.83303738	     -0.30619185	      7.97619145	     -0.72848323	      1.02037237	      0.31113355	     19.39021390	      2.76194060	     -9.62480624	      3.90161966	      3.44768768	     -1.96381710	      6.76257246	    -12.03273823	      3.54732227	      7.99243862	    -14.61150417	     10.14011817	     -1.19399138	     -0.52737551	     -3.64781977	     -2.38509242	     -6.82764688
      0.55833333	     -1.72382653	     -0.38449196	      8.01400339	     -0.72227222	      1.02004950	      0.31112971	     19.25147192	      2.93423835	     -9.36886841	      3.40259062	      2.98094551	     -2.72204101	      9.52366834	    -12.03345837	      3.41628446	      7.77458715	    -15.51136453	      9.93251666	     -0.98765237	      3.25436706	     -3.66683786	     -2.28429462	     -6.80383941
      0.56250000	     -1.60536233	     -0.48098510	      8.05794864	     -0.71602653	      1.01976422	      0.31111512	     19.10174210	      3.12223138	     -9.13052084	      2.89153616	      2.51867612	     -3.43428142	      9.55007238	    -12.00159148	      3.25374072	      7.47346947	    -16.49158591	      9.81544561	     -0.60566973	      3.35010165	     -3.68712602	     -2.14404248	     -6.85182651
      0.56666667	     -1.51058390	     -0.57072829	      8.09955074	     -0.70976652	      1.01946906	      0.31111837	     18.96892854	      3.30094111	     -8.83102370	      2.39039814	      1.95801420	     -4.25925189	      9.61546914	    -11.92504203	      3.09939243	      7.18208656	    -17.50455375	      9.62374930	     -0.26991591	      3.53018806	     -3.67767986	     -2.01299921	     -6.85198804
      0.57083333	     -1.39757605	     -0.66673833	      8.13671968	     -0.70348293	      1.01921083	      0.31113126	     18.81171128	      3.48906096	     -8.51933806	      1.89760866	      1.32494156	     -5.12453617	      9.72101390	    -11.84586148	      2.92964233	      6.85675132	    -18.55078599	      9.38388755	      0.08898136	      3.80573626	     -3.68726516	     -1.87584128	     -6.85393434
      0.57500000	     -1.27678412	     -0.76030964	      8.17426475	     -0.69718838	      1.01900518	      0.31115505	     18.64544293	      3.67399426	     -8.21867946	      1.40367575	      0.63024692	     -5.98874095	      9.85331414	    -11.74566154	      2.75058660	      6.48639569	    -19.63486599	      9.08066184	      0.46732744	      4.16109831	     -3.70318962	     -1.73228149	     -6.85356602
      0.57916667	     -1.15923559	     -0.85648281	      8.21036715	     -0.69088731	      1.01881235	      0.31119210	     18.48115420	      3.86023680	     -7.90747858	      0.91222712	     -0.10435644	     -6.87145581	     10.01853011	    -11.61805723	      2.56115748	      6.10063844	    -20.75446999	      8.71785548	      0.85466902	      4.62705200	     -3.71625229	     -1.59428499	     -6.84492859
      0.58333333	     -1.04154939	     -0.96202848	      8.24289307	     -0.68457345	      1.01865483	      0.31124597	     18.32175931	      4.05388753	     -7.62792834	      0.41155678	     -0.86647142	     -7.70799056	     10.19291765	    -11.46113547	      2.34798275	      5.66106650	    -21.91083614	      8.26867308	      1.25880161	      5.16265197	     -3.72204208	     -1.43903708	     -6.83200962
      0.58750000	     -0.92660649	     -1.05835125	      8.26739531	     -0.67825513	      1.01851194	      0.31131667	     18.17358783	      4.23431480	     -7.37712488	     -0.11072204	     -1.60375747	     -8.45756169	     12.07828943	    -11.28892882	      2.14002408	      5.23171108	    -23.06006372	      7.55614782	      1.49662048	     11.18939767	     -3.72577769	     -1.29115853	     -6.80841446
      0.59166667	     -0.78383991	     -1.16841403	      8.30984985	     -0.67195882	      1.01847813	      0.31139652	     17.99775304	      4.42668723	     -7.18206091	     -0.63638321	     -2.33607232	     -9.13886876	     12.06723985	    -11.09976236	      1.88554114	      4.73506786	    -24.28995465	      7.00838883	      1.98577580	     11.30154523	     -3.76973588	     -1.13598531	     -6.79437926
      0.59583333	     -0.68698370	     -1.26987248	      8.33746014	     -0.66567549	      1.01839208	      0.31151994	     17.87609057	      4.60608789	     -6.93837323	     -1.17859610	     -3.04160854	     -9.85945245	     12.06999490	    -10.83479168	      1.63846353	      4.22097004	    -25.55059277	      6.35202995	      2.41798591	     11.51866246	     -3.75570681	     -0.99816278	     -6.76599263
      0.60000000	     -0.52623215	     -1.38798200	      8.36805779	     -0.65939361	      1.01845127	      0.31165616	     17.68393946	      4.80961279	     -6.73363055	     -1.71729766	     -3.71327060	    -10.52330663	     12.08106306	    -10.61436863	      1.34356159	      3.67329828	    -26.83008670	      5.63013732	      2.88797973	     11.85015019	     -3.82289386	     -0.82847905	     -6.72799642
